<?xml version="1.0" encoding="UTF-8" standalone="no"?>
<!DOCTYPE svg PUBLIC "-//W3C//DTD SVG 1.1//EN"
 "http://www.w3.org/Graphics/SVG/1.1/DTD/svg11.dtd">
<!-- Generated by graphviz version 2.38.0 (20140413.2041)
 -->
<!-- Title: sigfeat Pages: 1 -->
<svg width="162pt" height="204pt"
 viewBox="0.00 0.00 161.50 204.00" xmlns="http://www.w3.org/2000/svg" xmlns:xlink="http://www.w3.org/1999/xlink">
<g id="graph0" class="graph" transform="scale(1 1) rotate(0) translate(4 200)">
<title>sigfeat</title>
<polygon fill="white" stroke="none" points="-4,4 -4,-200 157.5,-200 157.5,4 -4,4"/>
<!-- F -->
<g id="node1" class="node"><title>F</title>
<polygon fill="none" stroke="black" points="71,-196 0,-196 0,-160 71,-160 71,-196"/>
<text text-anchor="middle" x="35.5" y="-174.3" font-family="Roboto" font-size="14.00">Feature</text>
</g>
<!-- E -->
<g id="node2" class="node"><title>E</title>
<polygon fill="none" stroke="black" points="119,-109 38,-109 38,-73 119,-73 119,-109"/>
<text text-anchor="middle" x="78.5" y="-87.3" font-family="Roboto" font-size="14.00">Extractor</text>
</g>
<!-- F&#45;&gt;E -->
<g id="edge1" class="edge"><title>F&#45;&gt;E</title>
<path fill="none" stroke="black" d="M44.2017,-159.799C50.2049,-147.932 58.3012,-131.928 65.12,-118.449"/>
<polygon fill="black" stroke="black" points="68.4202,-119.679 69.8112,-109.175 62.174,-116.519 68.4202,-119.679"/>
<text text-anchor="middle" x="68.5" y="-130.8" font-family="Roboto" font-size="14.00"> N</text>
</g>
<!-- Snk -->
<g id="node4" class="node"><title>Snk</title>
<polygon fill="none" stroke="black" points="105.5,-36 51.5,-36 51.5,-0 105.5,-0 105.5,-36"/>
<text text-anchor="middle" x="78.5" y="-14.3" font-family="Roboto" font-size="14.00">Sink</text>
</g>
<!-- E&#45;&gt;Snk -->
<g id="edge3" class="edge"><title>E&#45;&gt;Snk</title>
<path fill="none" stroke="black" d="M78.5,-72.8129C78.5,-64.7895 78.5,-55.0475 78.5,-46.0691"/>
<polygon fill="black" stroke="black" points="82.0001,-46.0288 78.5,-36.0288 75.0001,-46.0289 82.0001,-46.0288"/>
</g>
<!-- Src -->
<g id="node3" class="node"><title>Src</title>
<polygon fill="none" stroke="black" points="153.5,-196 89.5,-196 89.5,-160 153.5,-160 153.5,-196"/>
<text text-anchor="middle" x="121.5" y="-174.3" font-family="Roboto" font-size="14.00">Source</text>
</g>
<!-- Src&#45;&gt;E -->
<g id="edge2" class="edge"><title>Src&#45;&gt;E</title>
<path fill="none" stroke="black" d="M112.798,-159.799C106.795,-147.932 98.6988,-131.928 91.88,-118.449"/>
<polygon fill="black" stroke="black" points="94.826,-116.519 87.1888,-109.175 88.5798,-119.679 94.826,-116.519"/>
<text text-anchor="middle" x="110.5" y="-130.8" font-family="Roboto" font-size="14.00"> 1</text>
</g>
</g>
</svg>
