<?xml version="1.0" encoding="UTF-8" standalone="no"?>
<!-- Created with Inkscape (http://www.inkscape.org/) -->

<svg
   xmlns:dc="http://purl.org/dc/elements/1.1/"
   xmlns:cc="http://creativecommons.org/ns#"
   xmlns:rdf="http://www.w3.org/1999/02/22-rdf-syntax-ns#"
   xmlns:svg="http://www.w3.org/2000/svg"
   xmlns="http://www.w3.org/2000/svg"
   xmlns:sodipodi="http://sodipodi.sourceforge.net/DTD/sodipodi-0.dtd"
   xmlns:inkscape="http://www.inkscape.org/namespaces/inkscape"
   id="svg2985"
   version="1.1"
   inkscape:version="0.48.5 r10040"
   width="521.25"
   height="453.75"
   xml:space="preserve"
   sodipodi:docname="diagram.pdf"><metadata
     id="metadata2991"><rdf:RDF><cc:Work
         rdf:about=""><dc:format>image/svg+xml</dc:format><dc:type
           rdf:resource="http://purl.org/dc/dcmitype/StillImage" /><dc:title></dc:title></cc:Work></rdf:RDF></metadata><defs
     id="defs2989"><clipPath
       clipPathUnits="userSpaceOnUse"
       id="clipPath3001"><path
         d="m 36,36 345.297,0 0,291 L 36,327 36,36 z"
         id="path3003" /></clipPath></defs><sodipodi:namedview
     pagecolor="#ffffff"
     bordercolor="#666666"
     borderopacity="1"
     objecttolerance="10"
     gridtolerance="10"
     guidetolerance="10"
     inkscape:pageopacity="0"
     inkscape:pageshadow="2"
     inkscape:window-width="1440"
     inkscape:window-height="838"
     id="namedview2987"
     showgrid="false"
     inkscape:zoom="1.4710938"
     inkscape:cx="260.625"
     inkscape:cy="226.875"
     inkscape:window-x="-8"
     inkscape:window-y="-8"
     inkscape:window-maximized="1"
     inkscape:current-layer="g2993" /><g
     id="g2993"
     inkscape:groupmode="layer"
     inkscape:label="diagram"
     transform="matrix(1.25,0,0,-1.25,0,453.75)"><g
       id="g2995" /><g
       id="g2997"><g
         id="g2999"
         clip-path="url(#clipPath3001)"><path
           d="m 36,36 0,291 345.297,0 0,-291 L 36,36 z"
           style="fill:#ffffff;fill-opacity:1;fill-rule:nonzero;stroke:none"
           id="path3005" /><path
           d="m 36,36 0,291 345.297,0 0,-291 L 36,36 z"
           style="fill:none;stroke:#fffffe;stroke-opacity:0;stroke-width:1;stroke-linecap:butt;stroke-linejoin:round;stroke-miterlimit:10;stroke-dasharray:none"
           id="path3007" /><path
           d="m 119.5,323 -69,0 0,-36 69,0 0,36 z"
           style="fill:none;stroke:#000000;stroke-opacity:1;stroke-width:1;stroke-linecap:butt;stroke-linejoin:round;stroke-miterlimit:10;stroke-dasharray:none"
           id="path3009" /><text
           transform="matrix(1,0,0,-1,58.5,301.30078)"
           id="text3011"><tspan
             style="fill:#000000;fill-opacity:1;fill-rule:nonzero;stroke:none;font-family:Open Sans;font-variant:normal;font-weight:normal;font-size:14;writing-mode:lr;-inkscape-font-specification:OpenSans"
             x="0 7.504 15.75 23.996 29.246 38.234 44.226"
             y="0"
             sodipodi:role="line"
             id="tspan3013">Feature</tspan></text>
<path
           d="m 130,236 -90,0 0,-36 90,0 0,36 z"
           style="fill:none;stroke:#000000;stroke-opacity:1;stroke-width:1;stroke-linecap:butt;stroke-linejoin:round;stroke-miterlimit:10;stroke-dasharray:none"
           id="path3015" /><text
           transform="matrix(1,0,0,-1,48,214.30078)"
           id="text3017"><tspan
             style="fill:#000000;fill-opacity:1;fill-rule:nonzero;stroke:none;font-family:Open Sans;font-variant:normal;font-weight:normal;font-size:14;writing-mode:lr;-inkscape-font-specification:OpenSans"
             x="0 7.504 15.75 23.996 29.246 38.234 44.226 52.486 59.976 68.222"
             y="0"
             sodipodi:role="line"
             id="tspan3019">FeatureSet</tspan></text>
<path
           d="m 85,286.801 c 0,-11.637 0,-27.254 0,-40.563"
           style="fill:none;stroke:#000000;stroke-opacity:1;stroke-width:1;stroke-linecap:butt;stroke-linejoin:round;stroke-miterlimit:10;stroke-dasharray:none"
           id="path3021" /><path
           d="m 88.5,246.176 -3.5,-10 -3.5,10 7,0 z"
           style="fill:#000000;fill-opacity:1;fill-rule:nonzero;stroke:#000000;stroke-opacity:1;stroke-width:1;stroke-linecap:butt;stroke-linejoin:round;stroke-miterlimit:10;stroke-dasharray:none"
           id="path3023" /><text
           transform="matrix(1,0,0,-1,88.738,257.80078)"
           id="text3025"><tspan
             style="fill:#000000;fill-opacity:1;fill-rule:nonzero;stroke:none;font-family:Open Sans;font-variant:normal;font-weight:normal;font-size:14;writing-mode:lr;-inkscape-font-specification:OpenSans"
             x="0"
             y="0"
             id="tspan3027">N</tspan></text>
<path
           d="m 233,149 -78,0 0,-36 78,0 0,36 z"
           style="fill:none;stroke:#000000;stroke-opacity:1;stroke-width:1;stroke-linecap:butt;stroke-linejoin:round;stroke-miterlimit:10;stroke-dasharray:none"
           id="path3029" /><text
           transform="matrix(1,0,0,-1,163,127.30078)"
           id="text3031"><tspan
             style="fill:#000000;fill-opacity:1;fill-rule:nonzero;stroke:none;font-family:Open Sans;font-variant:normal;font-weight:normal;font-size:14;writing-mode:lr;-inkscape-font-specification:OpenSans"
             x="0 8.246 15.736 20.986 26.978 35.224 41.972 47.222 55.482"
             y="0"
             sodipodi:role="line"
             id="tspan3033">Extractor</tspan></text>
<path
           d="m 107.059,199.801 c 16.398,-12.789 38.961,-30.383 56.988,-44.446"
           style="fill:none;stroke:#000000;stroke-opacity:1;stroke-width:1;stroke-linecap:butt;stroke-linejoin:round;stroke-miterlimit:10;stroke-dasharray:none"
           id="path3035" /><path
           d="m 166.242,158.086 5.735,-8.91 -10.039,3.39 4.304,5.52 z"
           style="fill:#000000;fill-opacity:1;fill-rule:nonzero;stroke:#000000;stroke-opacity:1;stroke-width:1;stroke-linecap:butt;stroke-linejoin:round;stroke-miterlimit:10;stroke-dasharray:none"
           id="path3037" /><text
           transform="matrix(1,0,0,-1,150.738,170.80078)"
           id="text3039"><tspan
             style="fill:#000000;fill-opacity:1;fill-rule:nonzero;stroke:none;font-family:Open Sans;font-variant:normal;font-weight:normal;font-size:14;writing-mode:lr;-inkscape-font-specification:OpenSans"
             x="0"
             y="0"
             id="tspan3041">1</tspan></text>
<path
           d="m 221,76 -54,0 0,-36 54,0 0,36 z"
           style="fill:none;stroke:#000000;stroke-opacity:1;stroke-width:1;stroke-linecap:butt;stroke-linejoin:round;stroke-miterlimit:10;stroke-dasharray:none"
           id="path3043" /><text
           transform="matrix(1,0,0,-1,180,54.300781)"
           id="text3045"><tspan
             style="fill:#000000;fill-opacity:1;fill-rule:nonzero;stroke:none;font-family:Open Sans;font-variant:normal;font-weight:normal;font-size:14;writing-mode:lr;-inkscape-font-specification:OpenSans"
             x="0 7.49 11.228 20.216"
             y="0"
             sodipodi:role="line"
             id="tspan3047">Sink</tspan></text>
<path
           d="m 194,112.813 c 0,-8.024 0,-17.766 0,-26.743"
           style="fill:none;stroke:#000000;stroke-opacity:1;stroke-width:1;stroke-linecap:butt;stroke-linejoin:round;stroke-miterlimit:10;stroke-dasharray:none"
           id="path3049" /><path
           d="m 197.5,86.027 -3.5,-10 -3.5,10 7,0 z"
           style="fill:#000000;fill-opacity:1;fill-rule:nonzero;stroke:#000000;stroke-opacity:1;stroke-width:1;stroke-linecap:butt;stroke-linejoin:round;stroke-miterlimit:10;stroke-dasharray:none"
           id="path3051" /><path
           d="m 239.5,236 -91,0 0,-36 91,0 0,36 z"
           style="fill:none;stroke:#000000;stroke-opacity:1;stroke-width:1;stroke-linecap:butt;stroke-linejoin:round;stroke-miterlimit:10;stroke-dasharray:none"
           id="path3053" /><text
           transform="matrix(1,0,0,-1,156.5,214.30078)"
           id="text3055"><tspan
             style="fill:#000000;fill-opacity:1;fill-rule:nonzero;stroke:none;font-family:Open Sans;font-variant:normal;font-weight:normal;font-size:14;writing-mode:lr;-inkscape-font-specification:OpenSans"
             x="0 8.246 14.252 22.498 31.486 37.478 45.738 52.486 60.732 67.48"
             y="0"
             sodipodi:role="line"
             id="tspan3057">Preprocess</tspan></text>
<path
           d="m 194,199.801 c 0,-11.637 0,-27.254 0,-40.563"
           style="fill:none;stroke:#000000;stroke-opacity:1;stroke-width:1;stroke-linecap:butt;stroke-linejoin:round;stroke-miterlimit:10;stroke-dasharray:none"
           id="path3059" /><path
           d="m 197.5,159.176 -3.5,-10 -3.5,10 7,0 z"
           style="fill:#000000;fill-opacity:1;fill-rule:nonzero;stroke:#000000;stroke-opacity:1;stroke-width:1;stroke-linecap:butt;stroke-linejoin:round;stroke-miterlimit:10;stroke-dasharray:none"
           id="path3061" /><text
           transform="matrix(1,0,0,-1,197.738,170.80078)"
           id="text3063"><tspan
             style="fill:#000000;fill-opacity:1;fill-rule:nonzero;stroke:none;font-family:Open Sans;font-variant:normal;font-weight:normal;font-size:14;writing-mode:lr;-inkscape-font-specification:OpenSans"
             x="0"
             y="0"
             id="tspan3065">1</tspan></text>
<path
           d="m 320,236 -62,0 0,-36 62,0 0,36 z"
           style="fill:none;stroke:#000000;stroke-opacity:1;stroke-width:1;stroke-linecap:butt;stroke-linejoin:round;stroke-miterlimit:10;stroke-dasharray:none"
           id="path3067" /><text
           transform="matrix(1,0,0,-1,266,214.30078)"
           id="text3069"><tspan
             style="fill:#000000;fill-opacity:1;fill-rule:nonzero;stroke:none;font-family:Open Sans;font-variant:normal;font-weight:normal;font-size:14;writing-mode:lr;-inkscape-font-specification:OpenSans"
             x="0 7.49 15.736 24.724 30.73 37.478"
             y="0"
             sodipodi:role="line"
             id="tspan3071">Source</tspan></text>
<path
           d="m 269.773,199.801 c -14.035,-12.559 -33.246,-29.75 -48.816,-43.68"
           style="fill:none;stroke:#000000;stroke-opacity:1;stroke-width:1;stroke-linecap:butt;stroke-linejoin:round;stroke-miterlimit:10;stroke-dasharray:none"
           id="path3073" /><path
           d="m 222.98,153.234 -9.785,-4.058 5.121,9.277 4.664,-5.219 z"
           style="fill:#000000;fill-opacity:1;fill-rule:nonzero;stroke:#000000;stroke-opacity:1;stroke-width:1;stroke-linecap:butt;stroke-linejoin:round;stroke-miterlimit:10;stroke-dasharray:none"
           id="path3075" /><text
           transform="matrix(1,0,0,-1,251.738,170.80078)"
           id="text3077"><tspan
             style="fill:#000000;fill-opacity:1;fill-rule:nonzero;stroke:none;font-family:Open Sans;font-variant:normal;font-weight:normal;font-size:14;writing-mode:lr;-inkscape-font-specification:OpenSans"
             x="0"
             y="0"
             id="tspan3079">1</tspan></text>
<path
           d="m 252.691,305 c 0,-9.941 -25.828,-18 -57.691,-18 -31.863,0 -57.691,8.059 -57.691,18 0,9.941 25.828,18 57.691,18 31.863,0 57.691,-8.059 57.691,-18"
           style="fill:none;stroke:#000000;stroke-opacity:1;stroke-width:1;stroke-linecap:butt;stroke-linejoin:round;stroke-miterlimit:10;stroke-dasharray:none"
           id="path3081" /><text
           transform="matrix(1,0,0,-1,158.5,301.30078)"
           id="text3083"><tspan
             style="fill:#000000;fill-opacity:1;fill-rule:nonzero;stroke:none;font-family:Open Sans;font-variant:normal;font-weight:normal;font-size:14;writing-mode:lr;-inkscape-font-specification:OpenSans"
             x="0 8.246 16.492 22.498 30.744 44.24 52.486 57.736 65.982"
             y="0"
             sodipodi:role="line"
             id="tspan3085">Parameter</tspan></text>
<path
           d="m 377.09,305 c 0,-9.941 -23.77,-18 -53.09,-18 -29.32,0 -53.09,8.059 -53.09,18 0,9.941 23.77,18 53.09,18 29.32,0 53.09,-8.059 53.09,-18"
           style="fill:none;stroke:#000000;stroke-opacity:1;stroke-width:1;stroke-linecap:butt;stroke-linejoin:round;stroke-miterlimit:10;stroke-dasharray:none"
           id="path3087" /><text
           transform="matrix(1,0,0,-1,291,301.30078)"
           id="text3089"><tspan
             style="fill:#000000;fill-opacity:1;fill-rule:nonzero;stroke:none;font-family:Open Sans;font-variant:normal;font-weight:normal;font-size:14;writing-mode:lr;-inkscape-font-specification:OpenSans"
             x="0 12.74 20.986 26.236 34.482 43.47 51.716 56.966"
             y="0"
             sodipodi:role="line"
             id="tspan3091">Metadata</tspan></text>
</g></g><g
       id="g3093" /></g></svg>